<?xml version="1.0" encoding="utf-8"?>
<svg xmlns:bx="https://boxy-svg.com" width="500pt" height="500pt" version="1.1" viewBox="0 0 500 500"
     preserveAspectRatio="xMidYMid slice" xmlns="http://www.w3.org/2000/svg">
    <g transform="matrix(1, 0, 0, 1, -52, -3)">
        <circle style="fill: rgb(53, 49, 49);" cx="302" cy="253" r="250" bx:origin="0.5 0.5"/>
        <path d="M 201.731 89.042 C 222.613 90.004 238.76 107.71 237.798 128.592 C 236.836 149.47 219.13 165.616 198.248 164.655 C 177.37 163.692 161.222 145.987 162.185 125.108 C 163.147 104.226 180.853 88.078 201.731 89.042"
              fill-rule="evenodd" style="fill: rgb(69, 195, 184);">
            <title>Head</title>
        </path>
        <path d="M 532.382 312.579 L 495.144 294.263 C 493.312 293.654 491.482 293.042 489.651 293.042 L 404.189 296.096 L 402.358 296.096 L 391.98 294.872 L 382.212 259.466 C 379.773 251.528 375.497 244.815 368.782 239.93 L 269.884 164.848 C 262.56 159.354 252.79 158.133 244.245 161.795 L 197.851 181.941 L 136.193 185.607 L 86.132 183.167 C 72.093 183.167 64.764 184.996 64.156 197.206 C 62.934 205.144 69.039 212.468 76.978 213.076 L 139.245 216.13 L 208.229 217.352 L 191.746 253.982 L 165.498 266.191 L 94.074 257.64 C 87.358 257.031 81.865 261.301 80.644 268.016 C 80.034 274.732 84.306 280.225 91.021 281.447 L 151.457 288.771 C 151.457 289.38 151.457 289.38 152.066 289.993 C 155.728 296.099 163.052 298.538 169.768 295.486 L 177.705 291.824 L 277.821 304.032 L 267.444 326.618 C 265.612 330.894 265.003 335.773 265.612 340.657 L 280.874 411.472 C 283.313 423.072 295.526 429.787 306.512 424.902 L 307.735 424.292 C 317.503 420.018 322.996 409.641 320.556 399.263 L 308.349 349.203 L 329.103 310.743 L 346.804 313.184 L 352.911 338.214 C 354.133 343.098 357.185 347.368 360.848 350.421 L 424.947 401.09 C 432.884 407.805 444.484 406.582 451.195 398.649 C 457.91 390.712 456.688 379.112 449.364 371.788 L 399.304 326.003 L 398.691 318.685 L 400.522 318.685 C 401.131 318.685 401.743 318.685 402.353 319.293 L 482.937 342.492 C 484.767 343.101 486.597 343.101 488.429 342.492 L 529.329 334.554 C 540.32 332.115 542.759 317.461 532.383 312.578 Z M 216.164 272.291 L 238.749 225.285 L 298.573 260.691 L 288.805 281.447 Z"
              style="fill: rgb(69, 195, 184);">
            <title>Body</title>
        </path>
    </g>
</svg>